<?xml version="1.0" encoding="utf-8"?>
<!-- Generator: Adobe Illustrator 21.0.0, SVG Export Plug-In . SVG Version: 6.00 Build 0)  -->
<svg version="1.1" id="Layer_1" xmlns="http://www.w3.org/2000/svg" xmlns:xlink="http://www.w3.org/1999/xlink" x="0px" y="0px"
	 viewBox="0 0 625 561" style="enable-background:new 0 0 625 561;" xml:space="preserve">
<style type="text/css">
	.st0{fill:none;stroke:#000000;stroke-width:9.2816;stroke-miterlimit:10;}
	.st1{fill:#FFFFFF;}
	.st2{fill:url(#SVGID_1_);}
	.st3{fill:url(#SVGID_2_);}
	.st4{fill:url(#SVGID_3_);}
	.st5{fill:url(#SVGID_4_);}
	.st6{fill:url(#SVGID_5_);}
	.st7{fill:url(#SVGID_6_);}
	.st8{fill:url(#SVGID_7_);}
	.st9{fill:url(#SVGID_8_);}
	.st10{fill:url(#SVGID_9_);}
	.st11{fill:url(#SVGID_10_);}
	.st12{fill:url(#SVGID_11_);}
	.st13{fill:url(#SVGID_12_);}
	.st14{fill:url(#SVGID_13_);}
	.st15{fill:url(#SVGID_14_);}
	.st16{fill:url(#SVGID_15_);}
	.st17{fill:url(#SVGID_16_);}
	.st18{fill:url(#SVGID_17_);}
	.st19{fill:none;stroke:#000000;stroke-width:28;stroke-miterlimit:10;}
</style>
<path class="st1" d="M306.6,290.5c0-38-1.7-73.5,0.4-108.7c3.2-53.2,41-90.5,94.2-92.6c22.6-0.9,45.6,3.7,68,7.9
	c24.2,4.6,44.4-1.4,62-17.7c4-3.7,7.2-8.4,10.7-12.7c-0.2,47.3-0.7,93.5-47.4,126.1c12-1.4,19.5-2.3,28.6-3.4
	c-15.3,38.6-40.4,65.1-79.3,73.6c-24.7,5.3-50.7,5.8-76.1,5.8C345.3,268.8,325.2,272.1,306.6,290.5z"/>
<path d="M306.6,290.5c18.5-18.4,38.7-21.7,61-21.7c25.4,0,51.4-0.4,76.1-5.8c38.9-8.4,64-35,79.3-73.6c-9.1,1.1-16.5,1.9-28.6,3.4
	c46.7-32.6,47.2-78.8,47.4-126.1c-3.6,4.2-6.7,8.9-10.7,12.7c-17.6,16.3-37.8,22.3-62,17.7c-22.4-4.2-45.5-8.8-68-7.9
	c-53.2,2.1-91,39.4-94.2,92.6C304.9,217,306.6,252.4,306.6,290.5z M344.8,188.7c17.6-32.4,60.4-38.5,86.5-12.4
	C413.3,208.9,370.8,215,344.8,188.7z"/>
<path class="st1" d="M344.8,188.7c25.9,26.3,68.4,20.2,86.5-12.4C405.2,150.1,362.4,156.3,344.8,188.7z"/>
<g>
	<g>
		
			<linearGradient id="SVGID_1_" gradientUnits="userSpaceOnUse" x1="-58.9959" y1="-249.8098" x2="232.2232" y2="-249.8098" gradientTransform="matrix(-1 0 0 -1 247.0018 -134.1478)">
			<stop  offset="0" style="stop-color:#B0B0B0"/>
			<stop  offset="0.1433" style="stop-color:#8A8A8A"/>
			<stop  offset="0.3494" style="stop-color:#595959"/>
			<stop  offset="0.5448" style="stop-color:#323232"/>
			<stop  offset="0.724" style="stop-color:#171717"/>
			<stop  offset="0.8814" style="stop-color:#060606"/>
			<stop  offset="1" style="stop-color:#000000"/>
		</linearGradient>
		<path class="st2" d="M134.8,125h20.7c5.1,0,9.3-4.2,9.3-9.3c0-5.1-4.2-9.3-9.3-9.3h-20.7c-5.1,0-9.3,4.2-9.3,9.3
			C125.5,120.8,129.7,125,134.8,125z"/>
		
			<linearGradient id="SVGID_2_" gradientUnits="userSpaceOnUse" x1="-57.9959" y1="-242.1431" x2="233.2232" y2="-242.1431" gradientTransform="matrix(-1 0 0 -1 247.0018 -134.1478)">
			<stop  offset="0" style="stop-color:#B0B0B0"/>
			<stop  offset="0.1433" style="stop-color:#8A8A8A"/>
			<stop  offset="0.3494" style="stop-color:#595959"/>
			<stop  offset="0.5448" style="stop-color:#323232"/>
			<stop  offset="0.724" style="stop-color:#171717"/>
			<stop  offset="0.8814" style="stop-color:#060606"/>
			<stop  offset="1" style="stop-color:#000000"/>
		</linearGradient>
		<path class="st3" d="M94.5,117.3h10.6c5.1,0,9.3-4.2,9.3-9.3v0c0-5.1-4.2-9.3-9.3-9.3H94.5c-5.1,0-9.3,4.2-9.3,9.3v0
			C85.2,113.1,89.4,117.3,94.5,117.3z"/>
		
			<linearGradient id="SVGID_3_" gradientUnits="userSpaceOnUse" x1="-58.9959" y1="-249.8098" x2="232.2232" y2="-249.8098" gradientTransform="matrix(-1 0 0 -1 247.0018 -134.1478)">
			<stop  offset="0" style="stop-color:#B0B0B0"/>
			<stop  offset="0.1433" style="stop-color:#8A8A8A"/>
			<stop  offset="0.3494" style="stop-color:#595959"/>
			<stop  offset="0.5448" style="stop-color:#323232"/>
			<stop  offset="0.724" style="stop-color:#171717"/>
			<stop  offset="0.8814" style="stop-color:#060606"/>
			<stop  offset="1" style="stop-color:#000000"/>
		</linearGradient>
		<path class="st4" d="M187.2,125h33.4c5.1,0,9.3-4.2,9.3-9.3c0-5.1-4.2-9.3-9.3-9.3h-33.4c-5.1,0-9.3,4.2-9.3,9.3
			C177.8,120.8,182,125,187.2,125z"/>
		
			<linearGradient id="SVGID_4_" gradientUnits="userSpaceOnUse" x1="-58.9959" y1="-285.1432" x2="232.2232" y2="-285.1432" gradientTransform="matrix(-1 0 0 -1 247.0018 -134.1478)">
			<stop  offset="0" style="stop-color:#B0B0B0"/>
			<stop  offset="0.1433" style="stop-color:#8A8A8A"/>
			<stop  offset="0.3494" style="stop-color:#595959"/>
			<stop  offset="0.5448" style="stop-color:#323232"/>
			<stop  offset="0.724" style="stop-color:#171717"/>
			<stop  offset="0.8814" style="stop-color:#060606"/>
			<stop  offset="1" style="stop-color:#000000"/>
		</linearGradient>
		<path class="st5" d="M133.5,151L133.5,151c0-5.1-4.2-9.3-9.3-9.3H95.5c-5.1,0-9.3,4.2-9.3,9.3v0c0,5.1,4.2,9.3,9.3,9.3h28.6
			C129.3,160.3,133.5,156.1,133.5,151z"/>
		
			<linearGradient id="SVGID_5_" gradientUnits="userSpaceOnUse" x1="-58.9959" y1="-285.1432" x2="232.2232" y2="-285.1432" gradientTransform="matrix(-1 0 0 -1 247.0018 -134.1478)">
			<stop  offset="0" style="stop-color:#B0B0B0"/>
			<stop  offset="0.1433" style="stop-color:#8A8A8A"/>
			<stop  offset="0.3494" style="stop-color:#595959"/>
			<stop  offset="0.5448" style="stop-color:#323232"/>
			<stop  offset="0.724" style="stop-color:#171717"/>
			<stop  offset="0.8814" style="stop-color:#060606"/>
			<stop  offset="1" style="stop-color:#000000"/>
		</linearGradient>
		<path class="st6" d="M203.8,151L203.8,151c0,5.1,4.2,9.3,9.3,9.3h17.2c5.1,0,9.3-4.2,9.3-9.3v0c0-5.1-4.2-9.3-9.3-9.3h-17.2
			C208,141.7,203.8,145.9,203.8,151z"/>
		
			<linearGradient id="SVGID_6_" gradientUnits="userSpaceOnUse" x1="-58.9959" y1="-294.1263" x2="232.2232" y2="-294.1263" gradientTransform="matrix(-1 0 0 -1 247.0018 -134.1478)">
			<stop  offset="0" style="stop-color:#B0B0B0"/>
			<stop  offset="0.1433" style="stop-color:#8A8A8A"/>
			<stop  offset="0.3494" style="stop-color:#595959"/>
			<stop  offset="0.5448" style="stop-color:#323232"/>
			<stop  offset="0.724" style="stop-color:#171717"/>
			<stop  offset="0.8814" style="stop-color:#060606"/>
			<stop  offset="1" style="stop-color:#000000"/>
		</linearGradient>
		<path class="st7" d="M261.2,160c0,5.1,4.2,9.3,9.3,9.3h10.8c5.1,0,9.3-4.2,9.3-9.3c0-5.1-4.2-9.3-9.3-9.3h-10.8
			C265.4,150.6,261.2,154.8,261.2,160z"/>
		
			<linearGradient id="SVGID_7_" gradientUnits="userSpaceOnUse" x1="-51.9959" y1="-321.7329" x2="239.2232" y2="-321.7329" gradientTransform="matrix(-1 0 0 -1 247.0018 -134.1478)">
			<stop  offset="0" style="stop-color:#B0B0B0"/>
			<stop  offset="0.1433" style="stop-color:#8A8A8A"/>
			<stop  offset="0.3494" style="stop-color:#595959"/>
			<stop  offset="0.5448" style="stop-color:#323232"/>
			<stop  offset="0.724" style="stop-color:#171717"/>
			<stop  offset="0.8814" style="stop-color:#060606"/>
			<stop  offset="1" style="stop-color:#000000"/>
		</linearGradient>
		<path class="st8" d="M157.8,187.6c0-5.1-4.2-9.3-9.3-9.3h-20.7c-5.1,0-9.3,4.2-9.3,9.3c0,5.1,4.2,9.3,9.3,9.3h20.7
			C153.6,196.9,157.8,192.7,157.8,187.6z"/>
		
			<linearGradient id="SVGID_8_" gradientUnits="userSpaceOnUse" x1="-58.9959" y1="-261.8098" x2="232.2232" y2="-261.8098" gradientTransform="matrix(-1 0 0 -1 247.0018 -134.1478)">
			<stop  offset="0" style="stop-color:#B0B0B0"/>
			<stop  offset="0.1433" style="stop-color:#8A8A8A"/>
			<stop  offset="0.3494" style="stop-color:#595959"/>
			<stop  offset="0.5448" style="stop-color:#323232"/>
			<stop  offset="0.724" style="stop-color:#171717"/>
			<stop  offset="0.8814" style="stop-color:#060606"/>
			<stop  offset="1" style="stop-color:#000000"/>
		</linearGradient>
		<path class="st9" d="M260.7,137h1c5.1,0,9.3-4.2,9.3-9.3c0-5.1-4.2-9.3-9.3-9.3h-1c-5.1,0-9.3,4.2-9.3,9.3
			C251.3,132.8,255.5,137,260.7,137z"/>
		
			<linearGradient id="SVGID_9_" gradientUnits="userSpaceOnUse" x1="-58.9959" y1="-357.4765" x2="232.2232" y2="-357.4765" gradientTransform="matrix(-1 0 0 -1 247.0018 -134.1478)">
			<stop  offset="0" style="stop-color:#B0B0B0"/>
			<stop  offset="0.1433" style="stop-color:#8A8A8A"/>
			<stop  offset="0.3494" style="stop-color:#595959"/>
			<stop  offset="0.5448" style="stop-color:#323232"/>
			<stop  offset="0.724" style="stop-color:#171717"/>
			<stop  offset="0.8814" style="stop-color:#060606"/>
			<stop  offset="1" style="stop-color:#000000"/>
		</linearGradient>
		<path class="st10" d="M291.2,214h-39c-5.1,0-9.3,4.2-9.3,9.3c0,5.1,4.2,9.3,9.3,9.3h39c5.1,0,9.3-4.2,9.3-9.3
			C300.5,218.2,296.3,214,291.2,214z"/>
		
			<linearGradient id="SVGID_10_" gradientUnits="userSpaceOnUse" x1="-58.9959" y1="-322.0662" x2="232.2232" y2="-322.0662" gradientTransform="matrix(-1 0 0 -1 247.0018 -134.1478)">
			<stop  offset="0" style="stop-color:#B0B0B0"/>
			<stop  offset="0.1433" style="stop-color:#8A8A8A"/>
			<stop  offset="0.3494" style="stop-color:#595959"/>
			<stop  offset="0.5448" style="stop-color:#323232"/>
			<stop  offset="0.724" style="stop-color:#171717"/>
			<stop  offset="0.8814" style="stop-color:#060606"/>
			<stop  offset="1" style="stop-color:#000000"/>
		</linearGradient>
		<path class="st11" d="M285.8,178.6c-5.1,0-9.3,4.2-9.3,9.3v0c0,5.1,4.2,9.3,9.3,9.3h1c5.1,0,9.3-4.2,9.3-9.3v0
			c0-5.1-4.2-9.3-9.3-9.3H285.8z"/>
		
			<linearGradient id="SVGID_11_" gradientUnits="userSpaceOnUse" x1="-58.9959" y1="-357.4765" x2="232.2232" y2="-357.4765" gradientTransform="matrix(-1 0 0 -1 247.0018 -134.1478)">
			<stop  offset="0" style="stop-color:#B0B0B0"/>
			<stop  offset="0.1433" style="stop-color:#8A8A8A"/>
			<stop  offset="0.3494" style="stop-color:#595959"/>
			<stop  offset="0.5448" style="stop-color:#323232"/>
			<stop  offset="0.724" style="stop-color:#171717"/>
			<stop  offset="0.8814" style="stop-color:#060606"/>
			<stop  offset="1" style="stop-color:#000000"/>
		</linearGradient>
		<path class="st12" d="M161.5,214h-10.3c-5.1,0-9.3,4.2-9.3,9.3c0,5.1,4.2,9.3,9.3,9.3h10.3c5.1,0,9.3-4.2,9.3-9.3
			C170.8,218.2,166.6,214,161.5,214z"/>
		
			<linearGradient id="SVGID_12_" gradientUnits="userSpaceOnUse" x1="-58.9959" y1="-357.4765" x2="232.2232" y2="-357.4765" gradientTransform="matrix(-1 0 0 -1 247.0018 -134.1478)">
			<stop  offset="0" style="stop-color:#B0B0B0"/>
			<stop  offset="0.1433" style="stop-color:#8A8A8A"/>
			<stop  offset="0.3494" style="stop-color:#595959"/>
			<stop  offset="0.5448" style="stop-color:#323232"/>
			<stop  offset="0.724" style="stop-color:#171717"/>
			<stop  offset="0.8814" style="stop-color:#060606"/>
			<stop  offset="1" style="stop-color:#000000"/>
		</linearGradient>
		<path class="st13" d="M220.5,214h-20.7c-5.1,0-9.3,4.2-9.3,9.3c0,5.1,4.2,9.3,9.3,9.3h20.7c5.1,0,9.3-4.2,9.3-9.3
			C229.9,218.2,225.7,214,220.5,214z"/>
		
			<linearGradient id="SVGID_13_" gradientUnits="userSpaceOnUse" x1="-58.9959" y1="-388.8098" x2="232.2232" y2="-388.8098" gradientTransform="matrix(-1 0 0 -1 247.0018 -134.1478)">
			<stop  offset="0" style="stop-color:#B0B0B0"/>
			<stop  offset="0.1433" style="stop-color:#8A8A8A"/>
			<stop  offset="0.3494" style="stop-color:#595959"/>
			<stop  offset="0.5448" style="stop-color:#323232"/>
			<stop  offset="0.724" style="stop-color:#171717"/>
			<stop  offset="0.8814" style="stop-color:#060606"/>
			<stop  offset="1" style="stop-color:#000000"/>
		</linearGradient>
		<path class="st14" d="M282,245.3h-20.7c-5.1,0-9.3,4.2-9.3,9.3c0,5.1,4.2,9.3,9.3,9.3H282c5.1,0,9.3-4.2,9.3-9.3
			C291.3,249.5,287.1,245.3,282,245.3z"/>
		
			<linearGradient id="SVGID_14_" gradientUnits="userSpaceOnUse" x1="-58.9959" y1="-388.8098" x2="232.2232" y2="-388.8098" gradientTransform="matrix(-1 0 0 -1 247.0018 -134.1478)">
			<stop  offset="0" style="stop-color:#B0B0B0"/>
			<stop  offset="0.1433" style="stop-color:#8A8A8A"/>
			<stop  offset="0.3494" style="stop-color:#595959"/>
			<stop  offset="0.5448" style="stop-color:#323232"/>
			<stop  offset="0.724" style="stop-color:#171717"/>
			<stop  offset="0.8814" style="stop-color:#060606"/>
			<stop  offset="1" style="stop-color:#000000"/>
		</linearGradient>
		<path class="st15" d="M214.2,245.3h-20.7c-5.1,0-9.3,4.2-9.3,9.3c0,5.1,4.2,9.3,9.3,9.3h20.7c5.1,0,9.3-4.2,9.3-9.3
			C223.5,249.5,219.3,245.3,214.2,245.3z"/>
		
			<linearGradient id="SVGID_15_" gradientUnits="userSpaceOnUse" x1="-58.9959" y1="-285.1432" x2="232.2232" y2="-285.1432" gradientTransform="matrix(-1 0 0 -1 247.0018 -134.1478)">
			<stop  offset="0" style="stop-color:#B0B0B0"/>
			<stop  offset="0.1433" style="stop-color:#8A8A8A"/>
			<stop  offset="0.3494" style="stop-color:#595959"/>
			<stop  offset="0.5448" style="stop-color:#323232"/>
			<stop  offset="0.724" style="stop-color:#171717"/>
			<stop  offset="0.8814" style="stop-color:#060606"/>
			<stop  offset="1" style="stop-color:#000000"/>
		</linearGradient>
		<path class="st16" d="M181.2,151c0-5.1-4.2-9.3-9.3-9.3h-9.7c-5.1,0-9.3,4.2-9.3,9.3v0c0,5.1,4.2,9.3,9.3,9.3h9.7
			C177,160.3,181.2,156.1,181.2,151L181.2,151z"/>
		
			<linearGradient id="SVGID_16_" gradientUnits="userSpaceOnUse" x1="-78.3743" y1="-322.0662" x2="212.8448" y2="-322.0662" gradientTransform="matrix(-1 0 0 -1 247.0018 -134.1478)">
			<stop  offset="0" style="stop-color:#B0B0B0"/>
			<stop  offset="0.1433" style="stop-color:#8A8A8A"/>
			<stop  offset="0.3494" style="stop-color:#595959"/>
			<stop  offset="0.5448" style="stop-color:#323232"/>
			<stop  offset="0.724" style="stop-color:#171717"/>
			<stop  offset="0.8814" style="stop-color:#060606"/>
			<stop  offset="1" style="stop-color:#000000"/>
		</linearGradient>
		<path class="st17" d="M200.6,187.9c0-5.1-4.2-9.3-9.3-9.3h-9.7c-5.1,0-9.3,4.2-9.3,9.3v0c0,5.1,4.2,9.3,9.3,9.3h9.7
			C196.4,197.3,200.6,193.1,200.6,187.9L200.6,187.9z"/>
		
			<linearGradient id="SVGID_17_" gradientUnits="userSpaceOnUse" x1="-84.0183" y1="-322.0662" x2="250.2491" y2="-322.0662" gradientTransform="matrix(-1 0 0 -1 247.0018 -134.1478)">
			<stop  offset="0" style="stop-color:#B0B0B0"/>
			<stop  offset="0.1433" style="stop-color:#8A8A8A"/>
			<stop  offset="0.3494" style="stop-color:#595959"/>
			<stop  offset="0.5448" style="stop-color:#323232"/>
			<stop  offset="0.724" style="stop-color:#171717"/>
			<stop  offset="0.8814" style="stop-color:#060606"/>
			<stop  offset="1" style="stop-color:#000000"/>
		</linearGradient>
		<path class="st18" d="M213.8,187.9L213.8,187.9c0,5.1,4.8,9.3,10.7,9.3h19.7c5.9,0,10.7-4.2,10.7-9.3v0c0-5.1-4.8-9.3-10.7-9.3
			h-19.7C218.6,178.6,213.8,182.8,213.8,187.9z"/>
	</g>
</g>
<path class="st19" d="M573.9,354.4c-67.7,0-122.5,71.2-122.5,159.2l0.9-318.3"/>
<rect x="14" y="14" class="st19" width="597" height="533"/>
</svg>
